<?xml version="1.0" encoding="utf-8"?>
<!-- Generator: Adobe Illustrator 16.0.3, SVG Export Plug-In . SVG Version: 6.00 Build 0)  -->
<!DOCTYPE svg PUBLIC "-//W3C//DTD SVG 1.1//EN" "http://www.w3.org/Graphics/SVG/1.1/DTD/svg11.dtd">
<svg version="1.1" id="Ebene_1" xmlns="http://www.w3.org/2000/svg" xmlns:xlink="http://www.w3.org/1999/xlink" x="0px" y="0px"
	 width="34.488px" height="34.521px" viewBox="0 0 34.488 34.521" enable-background="new 0 0 34.488 34.521" xml:space="preserve">
<g>
	<path fill-rule="evenodd" clip-rule="evenodd" fill="#60B2D1" d="M34.486,17.295c0.127,9.472-7.852,17.246-17.266,17.226
		C7.987,34.501-0.06,26.954,0,17.224C0.061,7.622,7.736-0.002,17.292,0C26.864,0.002,34.644,7.904,34.486,17.295z M2.519,17.289
		c0.051,8.163,6.684,14.771,14.785,14.73c8.103-0.042,14.778-6.767,14.71-14.824C31.946,9.08,25.354,2.526,17.251,2.521
		C9.123,2.517,2.468,9.188,2.519,17.289z"/>
	<path fill-rule="evenodd" clip-rule="evenodd" fill="#60B2D1" d="M12.26,27.84c0-0.414,0-0.766,0-1.264
		c0.511,0,1.005,0.013,1.499-0.004c0.733-0.025,1.068-0.347,1.072-1.084c0.012-2.716,0.01-5.43,0.002-8.145
		c-0.002-0.697-0.432-1.117-1.214-1.173c-0.524-0.038-1.054-0.006-1.614-0.006c0-0.402,0-0.724,0-1.198
		c2.618-0.098,5.26-0.197,8.01-0.301c0,0.32,0,0.588,0,0.856c0,3.121,0,6.242,0,9.362c0.001,1.5,0.165,1.668,1.639,1.698
		c0.272,0.006,0.545,0.03,0.852,0.048c0,0.421,0,0.791,0,1.211C19.112,27.84,15.725,27.84,12.26,27.84z"/>
	<path fill-rule="evenodd" clip-rule="evenodd" fill="#60B2D1" d="M19.825,9.617c-0.006,1.659-1.27,2.897-2.949,2.887
		c-1.618-0.011-2.869-1.271-2.877-2.9c-0.008-1.614,1.334-2.974,2.928-2.968C18.545,6.642,19.833,7.965,19.825,9.617z"/>
</g>
</svg>
