<?xml version="1.0" encoding="utf-8"?>
<!-- Generator: Adobe Illustrator 16.0.3, SVG Export Plug-In . SVG Version: 6.00 Build 0)  -->
<!DOCTYPE svg PUBLIC "-//W3C//DTD SVG 1.1//EN" "http://www.w3.org/Graphics/SVG/1.1/DTD/svg11.dtd">
<svg version="1.1"
	 id="Ebene_1" sodipodi:docname="logo-visa_mastercard.svg" inkscape:version="1.0 (4035a4f, 2020-05-01)" xmlns:sodipodi="http://sodipodi.sourceforge.net/DTD/sodipodi-0.dtd" xmlns:svg="http://www.w3.org/2000/svg" xmlns:cc="http://creativecommons.org/ns#" xmlns:dc="http://purl.org/dc/elements/1.1/" xmlns:inkscape="http://www.inkscape.org/namespaces/inkscape" xmlns:rdf="http://www.w3.org/1999/02/22-rdf-syntax-ns#"
	 xmlns="http://www.w3.org/2000/svg" xmlns:xlink="http://www.w3.org/1999/xlink" x="0px" y="0px" width="163.279px"
	 height="50.499px" viewBox="36.958 51.979 163.279 50.499" enable-background="new 36.958 51.979 163.279 50.499"
	 xml:space="preserve">
<sodipodi:namedview  id="namedview474" inkscape:current-layer="Ebene_1" inkscape:window-y="209" inkscape:window-x="53" inkscape:window-height="886" inkscape:window-width="1503" inkscape:pageopacity="0" inkscape:pageshadow="2" inkscape:window-maximized="0" inkscape:zoom="3.6433333" inkscape:cy="70" inkscape:cx="150" guidetolerance="10" showgrid="false" gridtolerance="10" objecttolerance="10" borderopacity="1" bordercolor="#666666" pagecolor="#ffffff">
	</sodipodi:namedview>
<g id="g471">
	<g id="g469">
		<g>
			<defs>
				<path id="SVGID_1_" d="M145.303,64.488l-6.505,16.625l-2.65-14.055c-0.321-1.526-1.526-2.49-2.892-2.49h-10.682l-0.161,0.643
					c2.169,0.481,4.658,1.205,6.185,2.088c0.964,0.482,1.204,0.964,1.446,2.088l5.059,19.436h6.666l10.2-24.335H145.303z
					 M154.62,64.488l-5.22,24.335h6.264l5.221-24.335C160.964,64.488,154.62,64.488,154.62,64.488z M190.761,71.154l1.928,9.156
					h-5.221L190.761,71.154z M189.796,64.488c-1.204,0-2.248,0.723-2.649,1.767l-9.478,22.568h6.586l1.285-3.614h8.191l0.723,3.614
					h5.783l-5.06-24.335H189.796z M162.651,72.118c-0.08,3.534,3.132,5.462,5.462,6.586c2.489,1.204,3.293,1.927,3.293,2.972
					c0,1.686-1.928,2.409-3.775,2.409c-3.213,0.08-4.979-0.884-6.506-1.526l-1.123,5.381c1.445,0.643,4.176,1.285,6.986,1.285
					c6.586,0,10.923-3.293,10.923-8.353c0.081-6.425-8.915-6.746-8.835-9.637c0-0.884,0.884-1.847,2.65-2.008
					c0.884-0.161,3.373-0.241,6.185,1.124l1.124-5.14c-1.525-0.562-3.453-1.044-5.862-1.044
					C167.068,64.087,162.651,67.38,162.651,72.118"/>
			</defs>
			<clipPath id="SVGID_2_">
				<use xlink:href="#SVGID_1_"  overflow="visible"/>
			</clipPath>
			
				<linearGradient id="XMLID_2_" gradientUnits="userSpaceOnUse" x1="-299.0137" y1="125.7568" x2="-298.248" y2="125.7568" gradientTransform="matrix(101.6332 0 0 -101.6332 30512.0605 12857.7852)">
				<stop  offset="0" style="stop-color:#241F5D"/>
				<stop  offset="1" style="stop-color:#034EA1"/>
			</linearGradient>
			<rect id="XMLID_6_" x="122.414" y="64.087" clip-path="url(#SVGID_2_)" fill="url(#XMLID_2_)" width="77.824" height="25.138"/>
		</g>
	</g>
</g>
<g id="g292" transform="matrix(0.40421082,0,0,0.40421082,801.50353,-407.83484)">
	<g id="g290" transform="matrix(3.1437,0,0,3.1437,-4835.7,-1027.6)">
		<g id="g274" transform="matrix(1.25,0,0,-1.25,1102.5,727.74)">
			<path id="path272" fill="#231F20" d="M-92.728-0.153v-0.083h0.076c0.017,0,0.031,0.004,0.042,0.011
				c0.01,0.006,0.015,0.017,0.015,0.031c0,0.014-0.006,0.025-0.015,0.031c-0.01,0.007-0.025,0.01-0.042,0.01H-92.728z M-92.65-0.096
				c0.039,0,0.069-0.009,0.091-0.026c0.022-0.018,0.032-0.042,0.032-0.073c0-0.026-0.007-0.047-0.025-0.063
				c-0.017-0.016-0.041-0.026-0.073-0.03l0.101-0.117h-0.079l-0.093,0.116h-0.031v-0.116h-0.066v0.309H-92.65z M-92.671-0.512
				c0.036,0,0.069,0.007,0.1,0.021c0.031,0.014,0.059,0.032,0.082,0.055c0.023,0.023,0.042,0.05,0.055,0.083
				c0.012,0.031,0.02,0.065,0.02,0.101c0,0.036-0.007,0.069-0.02,0.101c-0.014,0.031-0.032,0.06-0.055,0.082
				c-0.023,0.023-0.051,0.042-0.082,0.056c-0.031,0.013-0.064,0.019-0.1,0.019c-0.036,0-0.071-0.006-0.102-0.019
				c-0.033-0.014-0.06-0.033-0.084-0.056c-0.023-0.023-0.042-0.051-0.055-0.082c-0.014-0.031-0.02-0.065-0.02-0.101
				c0-0.037,0.006-0.07,0.02-0.101c0.013-0.033,0.031-0.06,0.055-0.083c0.023-0.023,0.051-0.042,0.084-0.055
				C-92.741-0.504-92.707-0.512-92.671-0.512 M-92.671,0.082c0.047,0,0.09-0.009,0.132-0.027c0.041-0.017,0.076-0.041,0.108-0.071
				c0.03-0.03,0.054-0.065,0.072-0.106c0.018-0.041,0.026-0.084,0.026-0.129c0-0.046-0.009-0.09-0.026-0.13
				c-0.018-0.04-0.042-0.076-0.072-0.106c-0.032-0.03-0.067-0.054-0.108-0.072c-0.042-0.017-0.085-0.026-0.132-0.026
				c-0.049,0-0.093,0.009-0.135,0.026c-0.041,0.018-0.077,0.042-0.108,0.072c-0.031,0.03-0.054,0.066-0.072,0.106
				c-0.018,0.04-0.026,0.084-0.026,0.13c0,0.045,0.009,0.089,0.026,0.129c0.018,0.041,0.041,0.076,0.072,0.106
				c0.031,0.031,0.067,0.055,0.108,0.071C-92.763,0.073-92.719,0.082-92.671,0.082 M-123.961,1.273c0,0.59,0.386,1.074,1.017,1.074
				c0.604,0,1.011-0.464,1.011-1.074c0-0.611-0.407-1.074-1.011-1.074C-123.575,0.199-123.961,0.683-123.961,1.273 M-121.246,1.273
				V2.95h-0.729V2.543c-0.231,0.302-0.582,0.492-1.059,0.492c-0.94,0-1.678-0.738-1.678-1.761c0-1.025,0.738-1.761,1.678-1.761
				c0.477,0,0.828,0.189,1.059,0.492v-0.407h0.729V1.273z M-96.603,1.273c0,0.59,0.387,1.074,1.018,1.074
				c0.604,0,1.011-0.464,1.011-1.074c0-0.611-0.407-1.074-1.011-1.074C-96.216,0.199-96.603,0.683-96.603,1.273 M-93.887,1.273
				v3.024h-0.73V2.543c-0.231,0.302-0.583,0.492-1.06,0.492c-0.94,0-1.677-0.738-1.677-1.761c0-1.025,0.737-1.761,1.677-1.761
				c0.477,0,0.829,0.189,1.06,0.492v-0.407h0.73V1.273z M-112.194,2.381c0.47,0,0.772-0.295,0.848-0.814h-1.74
				C-113.008,2.052-112.714,2.381-112.194,2.381 M-112.18,3.034c-0.983,0-1.67-0.716-1.67-1.761c0-1.067,0.716-1.761,1.72-1.761
				c0.505,0,0.968,0.126,1.375,0.47l-0.358,0.541c-0.281-0.224-0.639-0.352-0.976-0.352c-0.47,0-0.898,0.218-1.003,0.822h2.491
				c0.007,0.09,0.015,0.183,0.015,0.28C-110.594,2.319-111.24,3.034-112.18,3.034 M-103.374,1.273c0,0.59,0.386,1.074,1.017,1.074
				c0.604,0,1.011-0.464,1.011-1.074c0-0.611-0.407-1.074-1.011-1.074C-102.988,0.199-103.374,0.683-103.374,1.273 M-100.659,1.273
				V2.95h-0.729V2.543c-0.232,0.302-0.582,0.492-1.059,0.492c-0.94,0-1.678-0.738-1.678-1.761c0-1.025,0.738-1.761,1.678-1.761
				c0.477,0,0.827,0.189,1.059,0.492v-0.407h0.729V1.273z M-107.492,1.273c0-1.018,0.708-1.761,1.79-1.761
				c0.505,0,0.841,0.113,1.206,0.4l-0.35,0.59c-0.274-0.197-0.562-0.302-0.878-0.302c-0.582,0.007-1.011,0.428-1.011,1.074
				c0,0.646,0.429,1.067,1.011,1.074c0.316,0,0.604-0.106,0.878-0.302l0.35,0.59c-0.365,0.288-0.701,0.4-1.206,0.4
				C-106.784,3.034-107.492,2.29-107.492,1.273 M-98.09,3.034c-0.421,0-0.695-0.197-0.884-0.492V2.95h-0.723v-3.353h0.73v1.88
				c0,0.555,0.239,0.863,0.716,0.863c0.148,0,0.301-0.021,0.456-0.085l0.224,0.687C-97.732,3.006-97.943,3.034-98.09,3.034
				 M-117.639,2.683c-0.351,0.231-0.834,0.351-1.368,0.351c-0.85,0-1.397-0.407-1.397-1.074c0-0.547,0.408-0.884,1.158-0.989
				l0.345-0.049c0.4-0.057,0.588-0.161,0.588-0.351c0-0.259-0.267-0.407-0.764-0.407c-0.505,0-0.871,0.162-1.116,0.351l-0.344-0.568
				c0.4-0.294,0.905-0.435,1.452-0.435c0.968,0,1.53,0.456,1.53,1.094c0,0.59-0.441,0.898-1.172,1.003l-0.344,0.05
				c-0.315,0.042-0.569,0.105-0.569,0.33c0,0.245,0.239,0.393,0.638,0.393c0.429,0,0.843-0.162,1.046-0.288L-117.639,2.683z
				 M-108.23,3.034c-0.421,0-0.695-0.197-0.884-0.492V2.95h-0.722v-3.353h0.729v1.88c0,0.555,0.239,0.863,0.716,0.863
				c0.148,0,0.302-0.021,0.456-0.085l0.225,0.687C-107.872,3.006-108.082,3.034-108.23,3.034 M-114.453,2.95h-1.193v1.018h-0.737
				V2.95h-0.68V2.283h0.68v-1.53c0-0.778,0.302-1.242,1.164-1.242c0.317,0,0.681,0.098,0.912,0.259l-0.21,0.625
				c-0.218-0.125-0.456-0.189-0.646-0.189c-0.365,0-0.484,0.225-0.484,0.561v1.516h1.193V2.95z M-125.358-0.404v2.104
				c0,0.792-0.505,1.326-1.319,1.334c-0.429,0.007-0.87-0.127-1.179-0.597c-0.232,0.372-0.596,0.597-1.109,0.597
				c-0.358,0-0.708-0.106-0.982-0.498V2.95h-0.73v-3.353h0.737v1.859c0,0.582,0.322,0.891,0.821,0.891
				c0.484,0,0.729-0.316,0.729-0.885v-1.866h0.737v1.859c0,0.582,0.336,0.891,0.821,0.891c0.498,0,0.737-0.316,0.737-0.885v-1.866
				H-125.358z"/>
		</g>
		<g id="g278" transform="matrix(1.25,0,0,-1.25,1103.2,710.77)">
			<path id="path276" fill="#F79410" d="M-92.838-2.826v0.489h-0.128l-0.148-0.336l-0.148,0.336h-0.128v-0.489h0.09v0.369
				l0.138-0.318h0.093l0.139,0.32v-0.37H-92.838z M-93.648-2.826v0.406h0.164v0.083h-0.417V-2.42h0.164v-0.406H-93.648z"/>
		</g>
		<path id="path280" fill="#FF5F00" d="M969.002,716.937h-13.816v-24.829h13.816V716.937z"/>
		<g id="g284" transform="matrix(1.25,0,0,-1.25,1064.5,698.59)">
			<path id="path282" fill="#EB001B" d="M-86.743-4.744c0,4.029,1.886,7.619,4.824,9.932c-2.148,1.691-4.86,2.701-7.806,2.701
				c-6.976,0-12.631-5.656-12.631-12.632s5.654-12.632,12.631-12.632c2.946,0,5.658,1.01,7.806,2.701
				C-84.857-12.363-86.743-8.774-86.743-4.744"/>
		</g>
		<g id="g288" transform="matrix(1.25,0,0,-1.25,1103.8,698.59)">
			<path id="path286" fill="#F79E1B" d="M-92.932-4.744c0-6.977-5.655-12.632-12.631-12.632c-2.946,0-5.657,1.01-7.807,2.701
				c2.939,2.313,4.825,5.902,4.825,9.932s-1.886,7.619-4.825,9.932c2.149,1.691,4.861,2.701,7.807,2.701
				C-98.587,7.888-92.932,2.232-92.932-4.744"/>
		</g>
	</g>
</g>
</svg>
