<?xml version="1.0" encoding="utf-8"?>
<!-- Generator: Adobe Illustrator 16.0.3, SVG Export Plug-In . SVG Version: 6.00 Build 0)  -->
<!DOCTYPE svg PUBLIC "-//W3C//DTD SVG 1.1//EN" "http://www.w3.org/Graphics/SVG/1.1/DTD/svg11.dtd">
<svg version="1.1" id="Ebene_1" xmlns="http://www.w3.org/2000/svg" xmlns:xlink="http://www.w3.org/1999/xlink" x="0px" y="0px"
	 width="198.452px" height="48.108px" viewBox="22.491 54.263 198.452 48.108"
	 enable-background="new 22.491 54.263 198.452 48.108" xml:space="preserve">
<path fill="#009EE3" d="M39.835,65.587h13.573c7.308,0,10.039,3.694,9.557,9.075c-0.723,8.915-6.104,13.895-13.252,13.895H46.1
	c-0.964,0-1.606,0.643-1.928,2.409l-1.526,10.28c-0.081,0.643-0.482,1.044-0.964,1.125h-8.593c-0.803,0-1.125-0.643-0.884-1.928
	l5.221-32.929C37.667,66.229,38.39,65.587,39.835,65.587z"/>
<path fill="#113984" d="M98.625,64.944c4.578,0,8.754,2.49,8.192,8.674c-0.723,7.309-4.658,11.404-10.842,11.404h-5.461
	c-0.803,0-1.125,0.643-1.365,1.928l-1.044,6.666c-0.161,1.044-0.643,1.526-1.446,1.526h-5.06c-0.803,0-1.125-0.482-0.884-1.688
	l4.176-26.744c0.241-1.285,0.723-1.767,1.606-1.767H98.625L98.625,64.944z M90.433,79.32h4.096c2.57-0.08,4.257-1.847,4.417-5.06
	c0.08-2.008-1.205-3.373-3.373-3.373h-3.855L90.433,79.32L90.433,79.32z M120.631,93.135c0.482-0.402,0.964-0.643,0.883-0.08
	l-0.161,1.204c-0.08,0.643,0.161,0.964,0.804,0.964h4.497c0.723,0,1.125-0.321,1.285-1.445l2.73-17.348
	c0.161-0.883-0.08-1.285-0.723-1.285h-4.898c-0.482,0-0.643,0.241-0.803,0.964l-0.161,1.044c-0.081,0.563-0.321,0.643-0.563,0.081
	c-0.803-2.008-2.972-2.892-5.943-2.811c-6.907,0.161-11.565,5.381-12.047,12.127c-0.401,5.221,3.374,9.316,8.272,9.316
	C117.177,95.865,118.784,94.82,120.631,93.135L120.631,93.135L120.631,93.135z M116.856,90.484c-2.972,0-5.06-2.41-4.658-5.301
	c0.402-2.892,3.213-5.301,6.184-5.301s5.06,2.409,4.659,5.301C122.638,88.074,119.828,90.484,116.856,90.484L116.856,90.484z
	 M139.424,75.064h-4.578c-0.964,0-1.284,0.723-1.044,1.526l5.622,16.545l-5.542,7.87c-0.481,0.643-0.08,1.285,0.563,1.285h5.141
	c0.643,0.081,1.204-0.241,1.525-0.723l17.348-24.897c0.563-0.803,0.321-1.606-0.563-1.606h-4.818c-0.803,0-1.125,0.321-1.606,1.044
	l-7.228,10.521l-3.213-10.521C140.79,75.385,140.308,75.064,139.424,75.064L139.424,75.064z"/>
<path fill="#009EE3" d="M176.529,64.944c4.578,0,8.754,2.49,8.192,8.674c-0.724,7.309-4.658,11.404-10.843,11.404h-5.461
	c-0.803,0-1.125,0.643-1.365,1.928l-1.045,6.666c-0.16,1.044-0.643,1.526-1.445,1.526h-5.06c-0.804,0-1.124-0.482-0.884-1.688
	l4.177-26.744c0.241-1.285,0.723-1.767,1.606-1.767H176.529L176.529,64.944z M168.337,79.32h4.096c2.57-0.08,4.256-1.847,4.417-5.06
	c0.081-2.008-1.204-3.373-3.373-3.373h-3.854L168.337,79.32L168.337,79.32z M198.535,93.135c0.482-0.402,0.964-0.643,0.884-0.08
	l-0.161,1.204c-0.08,0.643,0.161,0.964,0.804,0.964h4.497c0.723,0,1.125-0.321,1.285-1.445l2.73-17.348
	c0.161-0.883-0.08-1.285-0.723-1.285h-4.898c-0.482,0-0.643,0.241-0.804,0.964l-0.161,1.044c-0.08,0.563-0.32,0.643-0.562,0.081
	c-0.804-2.008-2.972-2.892-5.943-2.811c-6.907,0.161-11.565,5.381-12.047,12.127c-0.401,5.221,3.373,9.316,8.272,9.316
	C195.162,95.865,196.768,94.82,198.535,93.135L198.535,93.135L198.535,93.135z M194.76,90.484c-2.972,0-5.06-2.41-4.658-5.301
	c0.401-2.892,3.212-5.301,6.185-5.301c2.971,0,5.059,2.409,4.658,5.301C200.542,88.074,197.732,90.484,194.76,90.484L194.76,90.484z
	 M215.481,95.303h-5.14c-0.322,0-0.643-0.24-0.643-0.563v-0.08l4.578-28.833c0.08-0.401,0.481-0.723,0.883-0.723h5.141
	c0.32,0,0.643,0.241,0.643,0.562v0.081l-4.578,28.833C216.205,94.981,215.882,95.303,215.481,95.303L215.481,95.303z"/>
<path fill="#113984" d="M31.322,54.263h13.573c3.855,0,8.353,0.161,11.405,2.811c2.008,1.767,3.052,4.658,2.811,7.71
	c-0.803,10.36-7.068,16.143-15.34,16.143h-6.666c-1.125,0-1.928,0.723-2.249,2.812l-1.847,11.886
	c-0.161,0.804-0.482,1.204-1.044,1.285h-8.353c-0.964,0-1.285-0.724-1.044-2.249l6.024-38.149
	C28.833,54.985,29.636,54.263,31.322,54.263z"/>
<path fill="#172C70" d="M35.097,82.533l2.329-15.019c0.241-1.285,0.963-1.927,2.329-1.927h13.573c2.249,0,4.096,0.321,5.461,0.964
	c-1.365,9.236-7.309,14.376-15.099,14.376h-6.666C36.141,80.927,35.499,81.328,35.097,82.533z"/>
</svg>
