<?xml version="1.0" encoding="utf-8"?>
<!-- Generator: Adobe Illustrator 16.0.3, SVG Export Plug-In . SVG Version: 6.00 Build 0)  -->
<!DOCTYPE svg PUBLIC "-//W3C//DTD SVG 1.1//EN" "http://www.w3.org/Graphics/SVG/1.1/DTD/svg11.dtd">
<svg version="1.1" id="ICON" xmlns="http://www.w3.org/2000/svg" xmlns:xlink="http://www.w3.org/1999/xlink" x="0px" y="0px"
	 width="48px" height="34px" viewBox="0 0 48 34" enable-background="new 0 0 48 34" xml:space="preserve">
<g>
	<g>
		<path fill="#1D1D1B" d="M45,20H3c-1.657,0-3-1.343-3-3s1.343-3,3-3h42c1.657,0,3,1.343,3,3S46.657,20,45,20z"/>
	</g>
	<g>
		<path fill="#1D1D1B" d="M23,34H3c-1.657,0-3-1.343-3-3s1.343-3,3-3h20c1.657,0,3,1.343,3,3S24.657,34,23,34z"/>
	</g>
	<g>
		<path fill="#1D1D1B" d="M37,6H3C1.343,6,0,4.657,0,3s1.343-3,3-3h34c1.657,0,3,1.343,3,3S38.657,6,37,6z"/>
	</g>
</g>
</svg>
