<?xml version="1.0" encoding="utf-8"?>
<!-- Generator: Adobe Illustrator 16.0.3, SVG Export Plug-In . SVG Version: 6.00 Build 0)  -->
<!DOCTYPE svg PUBLIC "-//W3C//DTD SVG 1.1//EN" "http://www.w3.org/Graphics/SVG/1.1/DTD/svg11.dtd">
<svg version="1.1" id="Layer_1" xmlns="http://www.w3.org/2000/svg" xmlns:xlink="http://www.w3.org/1999/xlink" x="0px" y="0px"
	 width="31.5px" height="32px" viewBox="0 0 31.5 32" enable-background="new 0 0 31.5 32" xml:space="preserve">
<g>
	<path fill="none" stroke="#1D1D1B" stroke-linecap="round" stroke-linejoin="round" stroke-miterlimit="10" d="M8.5,7.5v-5
		c0-1.104,0.896-2,2-2h11c1.104,0,2,0.896,2,2v27c0,1.104-0.896,2-2,2h-11c-1.104,0-2-0.896-2-2v-19"/>
	
		<line fill="none" stroke="#1D1D1B" stroke-linecap="round" stroke-linejoin="round" stroke-miterlimit="10" x1="14.5" y1="2.5" x2="16.5" y2="2.5"/>
	<circle fill="#1D1D1B" cx="18.5" cy="2.5" r="0.5"/>
	
		<line fill="none" stroke="#1D1D1B" stroke-linecap="round" stroke-linejoin="round" stroke-miterlimit="10" x1="8.5" y1="25.5" x2="21.5" y2="25.5"/>
	
		<circle fill="none" stroke="#1D1D1B" stroke-linecap="round" stroke-linejoin="round" stroke-miterlimit="10" cx="16" cy="28.5" r="1"/>
	
		<line fill="none" stroke="#1D1D1B" stroke-linecap="round" stroke-linejoin="round" stroke-miterlimit="10" x1="23.5" y1="4.5" x2="8.5" y2="4.5"/>
</g>
<g>
	<path fill="#1D1D1B" d="M5.395,20.156c-0.143,0-0.284-0.061-0.383-0.178c-1.202-1.425-1.864-3.235-1.864-5.097
		c0-2.01,0.761-3.929,2.143-5.404c0.188-0.202,0.505-0.212,0.707-0.023c0.202,0.188,0.212,0.505,0.023,0.707
		c-1.208,1.29-1.873,2.966-1.873,4.721c0,1.626,0.579,3.207,1.629,4.452c0.178,0.211,0.151,0.526-0.06,0.704
		C5.623,20.117,5.509,20.156,5.395,20.156z"/>
</g>
<g>
	<path fill="#1D1D1B" d="M2.729,21.321c-0.14,0-0.278-0.059-0.377-0.172C0.835,19.407,0,17.182,0,14.882
		c0-2.451,0.933-4.784,2.627-6.571c0.19-0.201,0.507-0.209,0.707-0.019c0.201,0.19,0.209,0.506,0.019,0.707
		C1.835,10.599,1,12.688,1,14.882c0,2.058,0.748,4.051,2.106,5.611c0.182,0.208,0.16,0.524-0.049,0.705
		C2.962,21.281,2.846,21.321,2.729,21.321z"/>
</g>
<g>
	<path fill="#1D1D1B" d="M25.845,20.156c-0.122,0-0.245-0.045-0.342-0.135c-0.201-0.188-0.212-0.505-0.023-0.707
		c1.208-1.29,1.873-2.967,1.873-4.721c0-1.626-0.578-3.207-1.629-4.452c-0.179-0.211-0.151-0.526,0.06-0.705
		c0.211-0.177,0.526-0.152,0.704,0.06c1.203,1.425,1.865,3.235,1.865,5.097c0,2.009-0.761,3.928-2.143,5.404
		C26.111,20.104,25.979,20.156,25.845,20.156z"/>
</g>
<g>
	<path fill="#1D1D1B" d="M28.51,21.321c-0.124,0-0.247-0.046-0.344-0.137c-0.2-0.19-0.209-0.507-0.02-0.707
		c1.518-1.601,2.354-3.69,2.354-5.884c0-2.059-0.748-4.051-2.105-5.611c-0.182-0.208-0.159-0.524,0.049-0.705
		c0.209-0.182,0.524-0.159,0.705,0.049c1.517,1.742,2.352,3.968,2.352,6.268c0,2.451-0.934,4.785-2.627,6.571
		C28.774,21.269,28.642,21.321,28.51,21.321z"/>
</g>
</svg>
