<?xml version="1.0" encoding="utf-8"?>
<!-- Generator: Adobe Illustrator 16.0.3, SVG Export Plug-In . SVG Version: 6.00 Build 0)  -->
<!DOCTYPE svg PUBLIC "-//W3C//DTD SVG 1.1//EN" "http://www.w3.org/Graphics/SVG/1.1/DTD/svg11.dtd">
<svg version="1.1" id="Ebene_1" xmlns="http://www.w3.org/2000/svg" xmlns:xlink="http://www.w3.org/1999/xlink" x="0px" y="0px"
	 width="53.75px" height="53.75px" viewBox="0 0 53.75 53.75" enable-background="new 0 0 53.75 53.75" xml:space="preserve">
<circle fill="#F2F2F2" cx="26.875" cy="26.875" r="26.875"/>
<g>
	<g>
		<path fill-rule="evenodd" clip-rule="evenodd" fill="#60B2D1" d="M9.542,29.93c0.761-0.834,1.516-1.674,2.284-2.5
			c0.616-0.664,1.244-1.315,1.876-1.963c0.447-0.458,0.809-0.458,1.276-0.007c1.701,1.64,3.398,3.284,5.098,4.925
			c0.631,0.608,1.266,1.212,1.916,1.837c1.239-1.592,2.465-3.165,3.689-4.739c4.354-5.594,8.709-11.188,13.065-16.781
			c0.136-0.174,0.301-0.325,0.451-0.486c0.199,0,0.397,0,0.597,0c1.491,1.182,2.986,2.361,4.473,3.55
			c0.228,0.181,0.418,0.408,0.624,0.613c0,0.17,0,0.34,0,0.51c-0.124,0.167-0.248,0.337-0.375,0.502
			c-6.899,8.861-13.797,17.724-20.701,26.581c-0.249,0.318-0.563,0.584-0.847,0.874c-0.142,0-0.283,0-0.425,0
			c-0.168-0.127-0.348-0.24-0.498-0.385c-1.377-1.319-2.748-2.646-4.123-3.967c-2.107-2.026-4.222-4.045-6.324-6.076
			c-0.699-0.674-1.372-1.375-2.057-2.064C9.542,30.213,9.542,30.07,9.542,29.93z"/>
	</g>
</g>
</svg>
