<?xml version="1.0" encoding="utf-8"?>
<!-- Generator: Adobe Illustrator 16.0.3, SVG Export Plug-In . SVG Version: 6.00 Build 0)  -->
<!DOCTYPE svg PUBLIC "-//W3C//DTD SVG 1.1//EN" "http://www.w3.org/Graphics/SVG/1.1/DTD/svg11.dtd">
<svg version="1.1" id="Ebene_1" xmlns="http://www.w3.org/2000/svg" xmlns:xlink="http://www.w3.org/1999/xlink" x="0px" y="0px"
	 width="48.25px" height="48.25px" viewBox="0 0 48.25 48.25" enable-background="new 0 0 48.25 48.25" xml:space="preserve">
<g>
	<polygon fill-rule="evenodd" clip-rule="evenodd" fill="#3C3C3B" points="8.165,19.676 8.121,19.841 23.826,24.984 27.131,23.751 
		23.849,24.676 	"/>
	<path fill-rule="evenodd" clip-rule="evenodd" fill="#3C3C3B" d="M25.74,18.12c-0.127-0.246-0.627-0.429-1.225-0.429
		c-0.693,0-1.256,0.247-1.256,0.551s0.563,0.551,1.256,0.551c0.395,0,0.745-0.08,0.976-0.204l12.146,1.421l0.86-0.285L25.74,18.12z"
		/>
	<path fill-rule="evenodd" clip-rule="evenodd" fill="#3C3C3B" d="M24.125,0C10.801,0,0,10.801,0,24.125
		C0,37.449,10.801,48.25,24.125,48.25c13.324,0,24.125-10.801,24.125-24.125C48.25,10.801,37.449,0,24.125,0z M38.91,24.267
		c0,0.255-0.112,0.483-0.289,0.639l1.291,5.694c-0.514,0.485-1.132,0.733-1.851,0.749c-0.719-0.016-1.337-0.264-1.851-0.749
		l1.292-5.695c-0.177-0.156-0.288-0.384-0.288-0.638c0-0.351,0.212-0.651,0.515-0.78v-2.363l-2.707,0.92v7.632
		c-3.86,4.345-17.382,4.906-20.54,0v-6.146l1.711,0.566v6.419c0.906,0.595,1.942,1.035,3.084,1.366v-6.764l4.445,1.473l10.541-4.137
		l0.127-0.195l-10.667,3.628L5.615,19.629l0.006-0.494l19.027-5.585l18.735,5.055l0.032,0.584l-5.021,1.708v2.59
		C38.698,23.616,38.91,23.916,38.91,24.267z"/>
</g>
</svg>
